<svg xmlns="http://www.w3.org/2000/svg" width="1920" height="1280" viewBox="0 0 1920 1280">
  <defs>
    <style>
      .cls-1 {
        fill-rule: evenodd;
      }
    </style>
  </defs>
  <path id="Color_Fill_1" data-name="Color Fill 1" class="cls-1" d="M0,0H1920V760c-79.76-.437-170.78-7.624-244,4h-94c-19.73,4.639-31.25,18.769-47,27l-27,9-9,8h-20c-8.54,1.849-22.24,6.542-29,11v5c-24.71.255-71.03-5.049-89-13q-8.505-6-17-12l-18-1c-16.3-11.884-31.77-26.705-53-34l-130,2c-61.91,0-124.85,2-184,2-44.824,0-93.533-3.228-133,4H785c-43.633,0-82.1-1.853-118-8H580L78,762,0,766V0Z"/>
</svg>
